<?xml version="1.0" ?><svg height="100px" id="Layer_1" style="enable-background:new 0 0 100 100;" version="1.1" viewBox="0 0 100 100" width="100px" xml:space="preserve" xmlns="http://www.w3.org/2000/svg" xmlns:xlink="http://www.w3.org/1999/xlink"><style type="text/css">
	.st0{fill:#E64C3C;}
	.st1{fill:#EFEFEF;}
</style><circle class="st0" cx="50" cy="49.6" id="XMLID_10_" r="50"/><g id="XMLID_5_"><path class="st1" d="M76.9,38h-8l-3.1-5c-1.3-2-3.5-3.2-5.8-3.2H40.1c-2.4,0-4.6,1.2-5.8,3.2l-3.1,5h-8   c-1.4,0-2.6,1.2-2.6,2.6v26.3c0,1.4,1.2,2.6,2.6,2.6h53.8c1.4,0,2.6-1.2,2.6-2.6V40.6C79.5,39.2,78.3,38,76.9,38z M50,64.9   c-6.5,0-11.7-5.3-11.7-11.7S43.5,41.4,50,41.4c6.5,0,11.7,5.3,11.7,11.7S56.5,64.9,50,64.9z" id="XMLID_8_"/><circle class="st1" cx="50" cy="53.2" id="XMLID_9_" r="8.9"/></g></svg>