<?xml version="1.0" ?><!DOCTYPE svg  PUBLIC '-//W3C//DTD SVG 1.1//EN'  'http://www.w3.org/Graphics/SVG/1.1/DTD/svg11.dtd'><svg height="512px" style="enable-background:new 0 0 512 512;" version="1.1" viewBox="0 0 512 512" width="512px" xml:space="preserve" xmlns="http://www.w3.org/2000/svg" xmlns:xlink="http://www.w3.org/1999/xlink"><g id="_x37_21-_gear__x2C__setting__x2C_engine__x2C_"><g><g><path d="M283.693,492.847H229.26c-14.972,0-27.153-12.177-27.153-27.144v-53.9c-19.271-6.774-37.417-17.271-52.977-30.643     l-46.764,26.991c-4.106,2.361-8.772,3.605-13.503,3.606c-9.703,0-18.727-5.173-23.55-13.5l-27.237-47.184     c-7.457-12.935-3.004-29.55,9.925-37.04l46.741-26.958c-1.903-10.071-2.867-20.341-2.867-30.6c0-10.258,0.963-20.527,2.867-30.6     l-46.73-26.95c-12.972-7.516-17.423-24.157-9.933-37.104l27.23-47.121c4.835-8.347,13.859-13.527,23.553-13.527     c4.743,0,9.417,1.257,13.517,3.635l46.754,26.946c15.576-13.353,33.724-23.837,52.974-30.604v-53.9     c0-14.968,12.181-27.145,27.153-27.145h54.434c14.974,0,27.155,12.177,27.155,27.145v53.899     c19.343,6.793,37.492,17.274,52.983,30.6l46.761-26.951c4.095-2.369,8.77-3.625,13.51-3.625c9.693,0,18.708,5.185,23.524,13.531     l27.25,47.118c7.477,12.977,3.021,29.615-9.928,37.1l-46.738,26.955c1.89,10.021,2.846,20.291,2.846,30.599     c0,10.388-0.953,20.659-2.839,30.603l46.726,26.948c6.236,3.572,10.721,9.399,12.611,16.398     c1.898,7.03,0.949,14.362-2.674,20.646l-27.233,47.178c-4.827,8.335-13.847,13.508-23.544,13.509     c-4.729,0-9.396-1.244-13.499-3.597l-46.775-27c-15.553,13.379-33.701,23.863-52.98,30.605v53.937     C310.849,480.67,298.667,492.847,283.693,492.847z M149.959,366.227c1.636,0,3.259,0.598,4.526,1.756     c16.143,14.748,35.631,26.02,56.358,32.597c2.787,0.885,4.68,3.472,4.68,6.395v58.729c0,7.569,6.162,13.728,13.736,13.728h54.434     c7.576,0,13.738-6.158,13.738-13.728v-58.774c0-2.928,1.899-5.518,4.691-6.397c20.731-6.537,40.215-17.791,56.344-32.546     c2.159-1.974,5.348-2.323,7.882-0.86l50.947,29.407c2.058,1.18,4.417,1.809,6.807,1.809c4.927-0.001,9.499-2.609,11.931-6.808     l27.227-47.166c1.827-3.17,2.305-6.88,1.343-10.442c-0.954-3.533-3.208-6.468-6.345-8.265l-50.938-29.378     c-2.539-1.465-3.834-4.408-3.196-7.27c2.334-10.482,3.518-21.429,3.518-32.536c0-11.004-1.185-21.955-3.521-32.55     c-0.63-2.857,0.664-5.794,3.199-7.256l50.921-29.367c6.547-3.783,8.8-12.207,5.017-18.773l-27.247-47.114     c-2.432-4.213-6.992-6.826-11.907-6.826c-2.383,0-4.734,0.632-6.8,1.827l-50.958,29.37c-2.533,1.46-5.721,1.11-7.879-0.864     c-16.047-14.687-35.533-25.941-56.354-32.548c-2.786-0.885-4.68-3.472-4.68-6.395V47.251c0-7.569-6.162-13.729-13.738-13.729     H229.26c-7.574,0-13.736,6.159-13.736,13.729v58.729c0,2.923-1.893,5.51-4.68,6.395c-20.706,6.569-40.196,17.828-56.366,32.559     c-2.157,1.967-5.339,2.311-7.867,0.854l-50.948-29.363c-2.073-1.203-4.419-1.834-6.801-1.834c-4.924,0-9.5,2.617-11.94,6.83     l-27.228,47.118c-3.789,6.55-1.531,14.97,5.033,18.772l50.909,29.36c2.535,1.462,3.83,4.398,3.2,7.256     c-2.351,10.662-3.542,21.613-3.542,32.55c0,10.938,1.192,21.889,3.542,32.55c0.63,2.857-0.665,5.794-3.199,7.256l-50.92,29.368     c-6.53,3.782-8.786,12.184-5.018,18.72l27.229,47.172c2.428,4.19,7.003,6.799,11.936,6.799c2.388,0,4.742-0.628,6.807-1.814     l50.938-29.401C147.652,366.521,148.809,366.227,149.959,366.227z"/></g><g><path d="M256.491,337.764c-44.857,0-81.351-36.465-81.351-81.287c0-44.821,36.494-81.286,81.351-81.286     c44.842,0,81.323,36.465,81.323,81.286C337.814,301.299,301.333,337.764,256.491,337.764z M256.491,188.606     c-37.459,0-67.934,30.446-67.934,67.87s30.475,67.871,67.934,67.871c37.444,0,67.907-30.447,67.907-67.871     S293.936,188.606,256.491,188.606z"/></g></g></g><g id="Layer_1"/></svg>